<svg xmlns="http://www.w3.org/2000/svg" width="188" height="215" viewBox="0 0 188 215">
<g>
<path d="M 54.00,31.08 L 54.00,35.46 L 53.99,38.17 L 53.99,39.43 L 53.96,44.20 L 53.94,46.22 L 53.90,50.03 L 53.86,51.61 L 53.79,54.53 L 53.74,55.70 L 53.64,57.83 L 53.58,58.63 L 53.44,60.06 L 53.36,60.53 L 53.19,61.33 L 53.09,61.53 L 52.87,61.79 L 52.75,61.75 L 52.42,61.29 L 52.22,60.61 L 52.14,60.06 L 51.98,58.82 L 51.90,57.96 L 51.77,56.08 L 51.71,54.88 L 51.60,52.30 L 51.55,50.72 L 51.46,47.37 L 51.42,45.37 L 51.35,41.17 L 51.32,38.72 L 51.26,33.60 L 51.24,30.67 L 50.97,0.00 L 54.00,0.00 M 126.08,197.89 L 126.10,199.04 L 126.12,201.28 L 126.14,202.28 L 126.17,204.22 L 126.19,205.08 L 126.24,206.73 L 126.26,207.46 L 126.37,210.11 L 126.44,211.09 L 126.58,212.84 L 126.67,213.41 L 126.87,214.39 L 126.98,214.64 L 127.22,215.00 L 125.94,215.00 L 126.07,195.95 M 124.86,132.69 L 125.83,132.74 L 127.57,132.84 L 128.12,132.90 L 129.00,133.00 L 129.09,133.05 L 129.62,133.70 L 129.98,134.41 L 130.14,134.88 L 130.76,136.97 L 130.92,138.16 L 131.31,140.40 L 131.63,141.44 L 131.85,141.77 L 132.34,142.34 L 132.69,142.51 L 133.47,142.77 L 134.00,142.85 L 136.57,143.51 L 137.73,144.29 L 138.09,144.95 L 138.42,145.66 L 138.54,146.10 L 138.75,147.04 L 138.82,147.62 L 138.93,148.84 L 138.96,149.57 L 139.00,151.10 L 139.00,152.00 L 138.96,154.43 L 138.88,155.81 L 138.82,156.38 L 138.66,157.46 L 138.54,157.90 L 138.27,158.73 L 138.09,159.05 L 137.24,160.16 L 136.57,160.49 L 135.06,161.01 L 134.00,161.15 L 132.61,161.49 L 132.02,161.94 L 131.86,162.38 L 131.61,163.47 L 131.56,164.37 L 131.52,165.35 L 131.51,165.95 L 131.50,167.23 L 131.50,168.00 L 131.51,170.05 L 131.53,171.18 L 131.56,171.63 L 131.70,173.17 L 131.86,173.62 L 132.26,174.33 L 132.61,174.51 L 133.41,174.76 L 134.00,174.85 L 136.57,175.51 L 137.73,176.29 L 138.09,176.95 L 138.42,177.66 L 138.54,178.10 L 138.75,179.04 L 138.82,179.62 L 138.93,180.84 L 138.96,181.57 L 139.00,183.10 L 139.00,184.00 L 138.96,186.43 L 138.88,187.81 L 138.82,188.38 L 138.66,189.46 L 138.54,189.90 L 138.27,190.73 L 138.09,191.05 L 137.24,192.16 L 136.57,192.49 L 135.06,193.01 L 134.00,193.15 L 132.56,193.54 L 132.24,193.80 L 132.11,194.02 L 131.88,194.50 L 131.79,194.85 L 131.63,195.63 L 131.57,196.16 L 131.46,197.33 L 131.42,198.08 L 131.35,199.72 L 131.31,200.74 L 131.25,202.92 L 131.22,204.25 L 130.93,215.00 L 127.36,215.00 L 127.74,214.81 L 127.96,214.46 L 128.06,214.16 L 128.24,213.48 L 128.33,212.99 L 128.49,211.92 L 128.56,211.21 L 128.70,209.68 L 128.76,208.73 L 128.89,206.69 L 128.94,205.46 L 129.06,202.86 L 129.11,201.33 L 129.22,198.11 L 129.27,196.25 L 129.49,186.63 L 129.58,179.94 L 129.61,176.57 L 129.64,169.83 L 129.63,166.56 L 129.60,160.11 L 129.57,157.10 L 129.48,151.26 L 129.42,148.68 L 129.35,146.17 L 129.32,145.02 L 129.24,142.80 L 129.20,141.81 L 129.11,139.91 L 129.06,139.10 L 128.96,137.58 L 128.90,136.97 L 128.79,135.86 L 128.73,135.47 L 128.61,134.81 L 128.54,134.67 L 127.85,133.57 L 127.46,133.49 L 127.29,133.82 L 127.13,134.22 L 127.06,134.52 L 126.92,135.19 L 126.85,135.63 L 126.73,136.59 L 126.67,137.18 L 126.57,138.45 L 126.52,139.20 L 126.43,140.79 L 126.39,141.71 L 126.32,143.64 L 126.31,143.37 L 126.30,142.36 L 126.27,140.63 L 126.25,139.81 L 126.20,138.41 L 126.17,137.75 L 126.10,136.66 L 126.07,136.15 L 125.98,135.32 L 125.89,134.55 L 125.64,133.63 L 125.50,133.25 L 125.15,132.89 L 124.63,132.69 M 48.29,137.33 L 49.07,137.65 L 49.52,138.02 L 50.95,139.34 L 51.72,140.30 L 52.03,140.92 L 52.61,142.27 L 52.83,143.19 L 53.23,145.21 L 53.37,146.58 L 53.51,148.00 L 53.57,148.82 L 53.67,150.54 L 53.72,151.51 L 53.80,153.55 L 53.83,154.70 L 53.88,157.09 L 53.90,158.44 L 53.94,161.22 L 53.95,162.77 L 53.98,165.99 L 53.98,167.77 L 53.99,171.45 L 54.00,173.48 L 54.00,177.66 L 54.00,215.00 L 51.00,215.00 L 50.99,146.50 L 47.92,144.76 L 46.43,143.79 L 45.78,143.21 L 45.60,142.91 L 45.34,142.30 L 45.33,141.95 L 45.41,141.21 L 45.54,140.76 L 46.35,138.67 L 46.93,137.76 L 47.25,137.54 L 47.91,137.25 M 80.53,132.14 L 83.55,132.14 L 80.82,132.16 L 79.05,132.18 L 75.71,132.23 L 74.08,132.26 L 71.11,132.32 L 69.69,132.35 L 67.20,132.42 L 66.03,132.46 L 64.14,132.54 L 63.27,132.58 L 62.08,132.68 L 61.19,132.83 L 61.06,132.92 L 60.83,133.48 L 60.72,133.84 L 60.54,135.04 L 60.46,135.73 L 60.32,137.70 L 60.26,138.79 L 60.16,141.65 L 60.13,142.43 L 60.09,144.18 L 60.08,145.09 L 60.04,147.10 L 60.03,148.15 L 60.01,150.45 L 60.00,151.64 L 59.98,154.24 L 59.97,155.58 L 59.96,158.50 L 59.96,160.00 L 59.95,163.26 L 59.95,164.93 L 59.96,168.53 L 59.97,174.35 L 60.06,215.00 L 59.97,174.50 L 59.93,166.36 L 59.89,161.20 L 59.87,158.77 L 59.81,154.05 L 59.78,151.90 L 59.71,147.73 L 59.67,145.90 L 59.59,142.40 L 59.55,140.94 L 59.45,138.22 L 59.40,137.20 L 59.30,135.37 L 59.25,134.83 L 59.20,134.35 L 59.17,134.21 L 59.12,134.00 L 59.09,134.00 L 58.22,134.66 L 57.52,135.63 L 57.22,136.25 L 56.62,137.43 L 56.37,137.84 L 56.29,137.86 L 56.17,137.77 L 56.14,137.54 L 56.10,136.96 L 56.08,136.50 L 56.11,135.03 L 56.29,134.23 L 56.57,133.92 L 57.25,133.35 L 57.89,133.13 L 58.58,132.93 L 59.01,132.84 L 59.94,132.68 L 60.51,132.61 L 61.72,132.49 L 62.45,132.44 L 63.97,132.34 L 64.87,132.31 L 66.75,132.24 L 67.83,132.22 L 70.10,132.18 L 71.40,132.16 L 74.09,132.14 L 75.61,132.14 L 78.77,132.13 M 50.62,126.19 L 51.50,126.41 L 53.23,127.08 L 53.84,127.64 L 53.88,128.00 L 53.78,128.78 L 53.46,129.27 L 52.66,130.34 L 52.00,131.00 L 50.39,132.39 L 49.68,132.71 L 48.31,133.12 L 47.77,132.96 L 46.78,132.42 L 46.48,131.81 L 46.20,131.14 L 46.12,130.72 L 46.00,129.83 L 46.00,129.30 L 46.36,127.57 L 46.96,126.74 L 47.42,126.49 L 48.47,126.12 L 49.15,126.10 M 61.90,126.54 L 62.30,126.62 L 63.23,126.72 L 64.32,126.78 L 65.07,126.80 L 66.69,126.86 L 67.68,126.88 L 69.78,126.92 L 70.98,126.94 L 73.47,126.97 L 74.84,126.98 L 77.66,127.00 L 79.17,127.01 L 85.43,127.02 L 88.76,127.01 L 95.46,126.99 L 99.29,127.00 L 100.92,127.02 L 103.99,127.05 L 105.27,127.09 L 107.68,127.16 L 108.66,127.21 L 110.47,127.32 L 111.20,127.39 L 112.52,127.54 L 113.03,127.63 L 113.94,127.83 L 114.28,127.95 L 114.87,128.20 L 115.08,128.34 L 115.49,128.77 L 115.46,129.00 L 115.25,129.10 L 114.68,129.27 L 114.15,129.34 L 112.91,129.47 L 111.99,129.51 L 109.96,129.59 L 108.60,129.62 L 105.63,129.66 L 103.76,129.67 L 101.82,129.68 L 100.74,129.68 L 98.51,129.68 L 97.28,129.67 L 94.75,129.67 L 93.37,129.66 L 90.53,129.65 L 88.98,129.64 L 83.93,129.62 L 81.72,129.62 L 77.49,129.62 L 75.66,129.64 L 72.20,129.67 L 70.74,129.69 L 67.99,129.75 L 66.86,129.80 L 64.76,129.89 L 63.94,129.94 L 62.44,130.07 L 61.90,130.14 L 60.95,130.30 L 60.67,130.40 L 60.21,130.59 L 60.15,130.70 L 59.27,131.37 L 58.48,131.28 L 57.99,130.97 L 57.24,130.29 L 57.33,130.02 L 57.68,130.02 L 58.70,129.44 L 59.31,128.60 L 59.48,128.07 L 60.46,126.70 L 60.95,126.52 L 61.26,126.51 M 122.99,127.13 L 123.39,127.33 L 124.11,127.84 L 124.26,128.25 L 124.34,128.64 L 124.26,128.80 L 124.03,129.10 L 123.79,129.21 L 123.23,129.40 L 122.83,129.46 L 121.95,129.56 L 121.39,129.57 L 119.79,129.55 L 119.11,129.46 L 118.94,129.37 L 118.71,129.14 L 118.75,128.97 L 118.93,128.59 L 119.15,128.32 L 120.44,127.37 L 121.48,127.05 L 121.99,127.04 M 118.00,79.29 L 120.12,79.66 L 120.61,79.84 L 120.76,79.94 L 121.00,80.15 L 121.00,80.25 L 120.91,80.45 L 120.76,80.54 L 120.39,80.71 L 120.12,80.78 L 118.82,81.00 L 118.00,81.00 L 115.88,80.72 L 115.39,80.53 L 115.24,80.41 L 115.00,80.17 L 115.00,80.04 L 115.24,79.68 L 115.61,79.49 L 115.88,79.42 L 117.17,79.23 M 49.22,64.28 L 49.78,64.71 L 50.07,65.03 L 51.24,66.54 L 51.70,67.50 L 53.16,69.92 L 54.08,70.78 L 54.51,70.85 L 55.37,70.72 L 55.77,70.29 L 56.56,69.18 L 56.92,68.25 L 58.01,65.50 L 57.51,68.16 L 57.01,70.43 L 56.65,71.79 L 56.51,72.16 L 56.51,73.08 L 56.76,73.82 L 56.99,74.23 L 58.16,75.95 L 59.01,76.80 L 60.83,78.47 L 61.80,79.09 L 62.76,79.67 L 63.23,79.88 L 64.14,80.23 L 64.56,80.29 L 65.44,80.44 L 65.65,80.50 L 65.91,80.60 L 65.81,80.63 L 65.45,80.68 L 65.04,80.69 L 64.05,80.70 L 63.31,80.69 L 61.71,80.61 L 60.81,80.51 L 60.47,80.44 L 59.86,80.30 L 59.70,80.22 L 59.47,80.04 L 59.53,79.95 L 59.49,79.51 L 59.27,79.07 L 59.08,78.79 L 58.12,77.59 L 57.44,76.94 L 56.05,75.78 L 55.27,75.31 L 54.89,75.21 L 54.13,75.10 L 53.70,75.16 L 52.79,75.37 L 52.22,75.58 L 49.81,76.19 L 48.30,76.33 L 47.85,76.24 L 46.70,75.50 L 46.12,74.60 L 45.92,74.01 L 45.59,72.74 L 45.52,72.04 L 45.42,70.58 L 45.46,69.84 L 45.60,68.36 L 45.75,67.67 L 46.10,66.35 L 46.35,65.81 L 46.92,64.81 L 47.27,64.50 L 48.04,64.00 L 48.49,64.00 M 131.21,7.25 L 131.31,9.54 L 131.38,10.79 L 131.43,11.29 L 131.52,12.23 L 131.59,12.59 L 131.73,13.26 L 131.82,13.51 L 132.25,14.30 L 132.60,14.49 L 133.41,14.76 L 134.00,14.85 L 136.57,15.51 L 137.73,16.29 L 138.09,16.95 L 138.42,17.66 L 138.54,18.10 L 138.75,19.04 L 138.82,19.62 L 138.93,20.84 L 138.96,21.57 L 139.00,23.10 L 139.00,24.00 L 138.96,26.43 L 138.88,27.81 L 138.82,28.38 L 138.66,29.46 L 138.54,29.90 L 138.27,30.73 L 138.09,31.05 L 137.24,32.16 L 136.57,32.49 L 135.06,33.01 L 134.00,33.15 L 132.61,33.49 L 132.02,33.94 L 131.86,34.38 L 131.61,35.47 L 131.56,36.37 L 131.52,37.35 L 131.51,37.95 L 131.50,39.23 L 131.50,40.00 L 131.51,42.05 L 131.53,43.18 L 131.56,43.63 L 131.70,45.17 L 131.86,45.62 L 132.26,46.33 L 132.61,46.51 L 133.41,46.76 L 134.00,46.85 L 136.57,47.51 L 137.73,48.29 L 138.09,48.95 L 138.42,49.66 L 138.54,50.10 L 138.75,51.04 L 138.82,51.62 L 138.93,52.84 L 138.96,53.57 L 139.00,55.10 L 139.00,56.00 L 138.96,58.43 L 138.88,59.81 L 138.82,60.38 L 138.66,61.46 L 138.54,61.90 L 138.27,62.73 L 138.09,63.05 L 137.24,64.16 L 136.57,64.49 L 135.06,65.01 L 134.00,65.15 L 132.65,65.49 L 132.05,65.90 L 131.86,66.28 L 131.53,67.17 L 131.44,67.88 L 131.27,69.50 L 131.20,70.66 L 130.98,72.93 L 130.76,74.17 L 130.61,74.65 L 130.29,75.52 L 130.10,75.81 L 129.69,76.29 L 129.45,76.38 L 128.52,76.53 L 128.12,76.36 L 128.05,76.18 L 128.00,75.76 L 128.11,75.48 L 128.43,74.90 L 128.75,74.58 L 128.90,73.68 L 129.00,72.36 L 129.05,71.38 L 129.14,69.21 L 129.19,67.84 L 129.27,64.92 L 129.31,63.21 L 129.38,59.64 L 129.41,57.65 L 129.48,53.54 L 129.50,51.31 L 129.55,46.76 L 129.56,44.35 L 129.59,39.45 L 129.60,36.92 L 129.61,30.72 L 129.62,26.96 L 129.62,25.25 L 129.62,21.96 L 129.62,20.48 L 129.62,17.62 L 129.61,16.34 L 129.60,13.89 L 129.59,12.80 L 129.57,10.72 L 129.55,9.81 L 129.52,8.07 L 129.49,7.32 L 129.45,5.90 L 129.42,5.30 L 129.29,3.15 L 129.20,2.43 L 129.01,1.19 L 128.89,0.83 L 128.62,0.26 L 128.45,0.15 L 128.09,0.00 L 130.91,0.00 M 127.30,0.15 L 126.98,0.49 L 126.86,0.86 L 126.62,1.76 L 126.53,2.51 L 126.37,4.23 L 126.31,5.48 L 126.25,6.80 L 126.23,7.57 L 126.19,9.20 L 126.17,10.14 L 126.14,12.11 L 126.12,13.23 L 126.10,15.57 L 126.09,16.89 L 126.07,19.63 L 126.07,21.16 L 126.06,24.33 L 126.06,26.09 L 126.05,29.73 L 126.05,31.74 L 126.05,35.88 L 126.05,0.00 L 127.87,0.00 Z" fill="rgba(34,76,86,1)"/>
<path d="M 126.85,136.32 L 127.13,136.66 L 127.79,138.05 L 128.01,139.19 L 127.96,139.69 L 127.93,140.81 L 127.91,142.26 L 127.91,143.31 L 127.90,145.61 L 127.90,147.04 L 127.90,150.08 L 127.90,151.84 L 127.91,155.51 L 127.92,157.54 L 127.94,161.73 L 127.95,163.99 L 127.97,168.60 L 127.99,171.03 L 128.02,175.96 L 128.04,178.50 L 128.07,182.12 L 128.08,183.79 L 128.11,187.02 L 128.12,188.50 L 128.15,191.35 L 128.16,192.65 L 128.19,195.14 L 128.21,196.25 L 128.24,198.38 L 128.25,199.32 L 128.28,201.10 L 128.30,201.87 L 128.33,203.32 L 128.35,203.92 L 128.38,205.04 L 128.40,205.48 L 128.44,206.27 L 128.46,206.56 L 128.50,207.05 L 128.53,207.18 L 128.57,207.37 L 128.60,207.35 L 128.64,207.25 L 128.67,207.09 L 128.72,206.71 L 128.75,206.41 L 128.81,205.75 L 128.84,205.33 L 128.97,203.36 L 129.05,202.00 L 129.20,198.51 L 129.23,197.67 L 129.22,198.11 L 129.11,201.33 L 129.06,202.86 L 128.94,205.46 L 128.89,206.69 L 128.76,208.73 L 128.70,209.68 L 128.56,211.21 L 128.49,211.92 L 128.33,212.99 L 128.24,213.48 L 128.06,214.16 L 127.96,214.46 L 127.74,214.81 L 127.36,215.00 L 127.22,215.00 L 126.98,214.64 L 126.87,214.39 L 126.67,213.41 L 126.58,212.84 L 126.44,211.09 L 126.37,210.11 L 126.26,207.46 L 126.24,206.73 L 126.19,205.08 L 126.17,204.22 L 126.14,202.28 L 126.12,201.28 L 126.10,199.04 L 126.08,197.89 L 126.06,195.34 L 126.05,194.02 L 126.04,191.13 L 126.03,189.64 L 126.02,186.40 L 126.02,184.73 L 126.02,181.12 L 126.01,179.26 L 126.02,175.25 L 126.02,172.91 L 126.02,168.57 L 126.03,166.46 L 126.04,162.56 L 126.05,160.67 L 126.08,157.20 L 126.09,155.52 L 126.13,152.46 L 126.15,150.98 L 126.20,148.32 L 126.22,147.03 L 126.28,144.74 L 126.32,143.65 L 126.39,141.71 L 126.43,140.79 L 126.52,139.20 L 126.57,138.45 L 126.67,137.18 L 126.73,136.59 L 126.80,136.07 M 128.54,134.67 L 128.61,134.81 L 128.73,135.47 L 128.79,135.86 L 128.90,136.97 L 128.96,137.58 L 129.06,139.10 L 129.11,139.91 L 129.20,141.81 L 129.24,142.80 L 129.32,145.02 L 129.35,146.17 L 129.42,148.68 L 129.48,151.26 L 129.57,157.10 L 129.60,160.11 L 129.63,166.56 L 129.64,169.83 L 129.61,176.57 L 129.58,179.94 L 129.49,186.63 L 129.45,188.63 L 129.48,186.49 L 129.50,184.76 L 129.56,177.67 L 129.56,173.99 L 129.55,166.59 L 129.52,162.98 L 129.45,155.88 L 129.39,152.65 L 129.33,149.48 L 129.29,148.01 L 129.21,145.16 L 129.17,143.88 L 129.08,141.42 L 129.03,140.37 L 128.93,138.38 L 128.87,137.59 L 128.76,136.14 L 128.70,135.65 L 128.57,134.82 L 128.51,134.67 L 128.36,134.37 M 127.47,133.49 L 127.44,133.51 L 127.46,133.49 M 61.10,76.72 L 61.61,76.75 L 63.23,76.80 L 64.14,76.83 L 66.48,76.87 L 67.72,76.89 L 70.66,76.93 L 72.18,76.95 L 75.58,76.98 L 77.33,76.99 L 81.07,77.02 L 84.87,77.04 L 92.21,77.05 L 84.91,77.06 L 81.11,77.05 L 77.37,77.03 L 75.62,77.02 L 72.23,76.99 L 70.70,76.98 L 67.77,76.94 L 66.52,76.92 L 64.17,76.87 L 63.26,76.84 L 61.63,76.77 L 61.12,76.74 L 60.33,76.66 L 60.29,76.62 L 60.32,76.65 M 128.45,0.15 L 128.62,0.26 L 128.74,0.52 L 128.71,0.66 L 128.61,1.72 L 128.57,2.53 L 128.47,4.32 L 128.43,5.45 L 128.33,7.87 L 128.29,9.28 L 128.20,12.23 L 128.16,13.86 L 128.08,17.23 L 128.04,19.04 L 127.89,26.57 L 127.82,30.57 L 127.71,38.66 L 127.67,42.63 L 127.61,50.47 L 127.60,54.01 L 127.60,57.47 L 127.60,59.05 L 127.62,62.11 L 127.63,63.46 L 127.66,66.02 L 127.69,67.07 L 127.74,69.03 L 127.78,69.75 L 127.78,71.44 L 127.70,72.41 L 127.63,72.79 L 127.45,73.47 L 127.34,73.68 L 127.08,74.00 L 126.93,74.00 L 126.36,74.27 L 126.30,74.67 L 126.46,74.93 L 126.58,75.76 L 126.34,76.29 L 126.08,76.45 L 125.71,76.50 L 125.75,75.81 L 125.77,75.27 L 125.82,73.50 L 125.84,72.51 L 125.88,69.91 L 125.90,68.52 L 125.94,65.19 L 125.96,63.44 L 125.99,59.49 L 126.00,57.45 L 126.02,52.98 L 126.03,50.69 L 126.04,45.81 L 126.05,38.14 L 126.05,35.88 L 126.05,31.74 L 126.05,29.73 L 126.06,26.09 L 126.06,24.33 L 126.07,21.16 L 126.07,19.63 L 126.09,16.89 L 126.10,15.57 L 126.12,13.23 L 126.14,12.11 L 126.17,10.14 L 126.19,9.20 L 126.23,7.57 L 126.25,6.80 L 126.31,5.48 L 126.37,4.23 L 126.53,2.51 L 126.62,1.76 L 126.86,0.86 L 126.98,0.49 L 127.30,0.15 L 127.87,0.00 L 128.09,0.00 M 129.20,2.43 L 129.29,3.15 L 129.42,5.30 L 129.45,5.90 L 129.49,7.32 L 129.52,8.07 L 129.55,9.81 L 129.57,10.72 L 129.59,12.80 L 129.60,13.89 L 129.61,16.34 L 129.62,17.62 L 129.62,20.48 L 129.62,21.96 L 129.62,25.25 L 129.62,26.96 L 129.61,30.72 L 129.60,36.92 L 129.59,39.45 L 129.56,44.35 L 129.55,46.76 L 129.53,48.44 L 129.58,41.53 L 129.58,36.90 L 129.58,27.65 L 129.55,23.32 L 129.52,19.07 L 129.50,17.09 L 129.45,13.23 L 129.42,11.51 L 129.36,8.20 L 129.32,6.79 L 129.23,4.17 L 129.19,3.16 L 129.11,1.84 Z" fill="rgba(41,72,78,1)"/>
<path d="M 54.00,189.67 L 54.01,191.33 L 54.01,194.52 L 54.02,195.95 L 54.03,198.71 L 54.04,199.93 L 54.06,202.28 L 54.07,203.32 L 54.10,205.29 L 54.12,206.15 L 54.16,207.78 L 54.18,208.49 L 54.23,209.81 L 54.26,210.37 L 54.41,212.33 L 54.50,212.98 L 54.72,214.06 L 54.86,214.36 L 55.16,214.82 L 55.35,214.90 L 55.75,215.00 L 54.00,215.00 L 54.00,179.95 L 54.00,186.01 M 132.65,65.49 L 134.00,65.15 L 132.65,65.49 M 59.17,134.21 L 59.20,134.35 L 59.25,134.83 L 59.30,135.37 L 59.40,137.20 L 59.45,138.22 L 59.55,140.94 L 59.59,142.40 L 59.67,145.90 L 59.71,147.73 L 59.78,151.90 L 59.81,154.05 L 59.87,158.77 L 59.89,161.20 L 59.93,166.36 L 59.97,174.50 L 60.06,215.00 L 56.00,215.00 L 56.65,214.90 L 57.00,214.64 L 57.14,214.31 L 57.40,213.52 L 57.50,212.82 L 57.59,212.07 L 57.63,211.61 L 57.71,210.61 L 57.74,210.01 L 57.80,208.73 L 57.82,207.97 L 57.87,206.37 L 57.89,205.44 L 57.92,203.49 L 57.93,202.38 L 57.96,200.04 L 57.96,198.71 L 57.98,195.95 L 57.98,194.40 L 57.99,191.18 L 57.99,189.39 L 58.00,185.68 L 58.00,183.63 L 58.00,179.39 L 58.00,177.06 L 57.98,168.47 L 57.96,163.23 L 57.93,160.87 L 57.88,156.33 L 57.85,154.32 L 57.78,150.49 L 57.74,148.85 L 57.65,145.75 L 57.60,144.49 L 57.49,142.16 L 57.43,141.29 L 57.30,139.74 L 57.23,139.28 L 57.08,138.55 L 57.00,138.50 L 56.43,137.74 L 56.62,137.43 L 57.22,136.25 L 57.52,135.63 L 58.22,134.66 L 59.09,134.00 L 59.12,134.00 M 127.72,133.50 L 127.84,133.54 L 128.09,133.85 L 128.51,134.67 L 128.57,134.82 L 128.70,135.65 L 128.76,136.14 L 128.87,137.59 L 128.93,138.38 L 129.03,140.37 L 129.08,141.42 L 129.17,143.88 L 129.21,145.16 L 129.29,148.01 L 129.33,149.48 L 129.39,152.65 L 129.45,155.88 L 129.52,162.98 L 129.55,166.59 L 129.56,173.99 L 129.56,177.67 L 129.50,184.76 L 129.48,186.49 L 129.43,189.78 L 129.40,191.39 L 129.33,194.40 L 129.29,195.86 L 129.20,198.51 L 129.05,202.00 L 128.97,203.36 L 128.84,205.33 L 128.81,205.75 L 128.75,206.41 L 128.72,206.71 L 128.67,207.09 L 128.64,207.25 L 128.60,207.35 L 128.57,207.37 L 128.53,207.18 L 128.50,207.05 L 128.46,206.56 L 128.44,206.27 L 128.40,205.48 L 128.38,205.04 L 128.35,203.92 L 128.33,203.32 L 128.30,201.87 L 128.28,201.10 L 128.25,199.32 L 128.24,198.38 L 128.21,196.25 L 128.19,195.14 L 128.16,192.65 L 128.15,191.35 L 128.12,188.50 L 128.11,187.02 L 128.08,183.79 L 128.07,182.12 L 128.04,178.50 L 128.02,175.96 L 127.99,171.03 L 127.97,168.60 L 127.95,163.99 L 127.94,161.73 L 127.92,157.54 L 127.91,155.51 L 127.90,151.84 L 127.90,150.08 L 127.90,147.04 L 127.90,145.61 L 127.91,143.31 L 127.91,142.26 L 127.93,140.81 L 127.96,139.69 L 128.01,139.19 L 127.79,138.05 L 127.13,136.66 L 126.85,136.32 L 126.65,135.41 L 126.92,134.13 L 127.07,133.88 L 127.34,133.60 L 127.47,133.49 M 131.31,140.41 L 131.31,140.40 L 131.31,140.40 M 129.21,133.18 L 129.85,133.93 L 130.10,134.50 L 130.56,135.78 L 130.74,136.69 L 131.07,138.68 L 131.18,139.66 L 130.92,138.16 L 130.76,136.97 L 130.14,134.88 L 129.98,134.41 L 129.62,133.70 L 129.18,133.16 M 56.08,136.50 L 56.09,136.88 L 56.00,136.42 L 56.06,135.85 L 56.10,135.61 M 115.07,128.31 L 115.32,128.47 L 116.64,129.27 L 117.28,129.53 L 117.53,129.54 L 118.01,129.46 L 118.23,129.29 L 118.70,128.86 L 118.98,128.52 L 118.93,128.59 L 118.75,128.97 L 118.71,129.14 L 118.94,129.37 L 119.11,129.46 L 119.79,129.55 L 121.39,129.57 L 121.95,129.56 L 122.83,129.46 L 123.23,129.40 L 123.79,129.21 L 124.03,129.10 L 124.26,128.80 L 124.34,128.64 L 124.33,128.58 L 124.47,128.73 L 124.78,129.41 L 126.16,131.31 L 127.37,132.30 L 127.94,132.48 L 128.85,132.98 L 128.12,132.90 L 127.57,132.84 L 125.83,132.74 L 124.86,132.69 L 122.37,132.60 L 121.03,132.56 L 117.88,132.47 L 116.23,132.43 L 112.53,132.36 L 110.61,132.33 L 106.44,132.27 L 104.31,132.24 L 99.79,132.20 L 92.71,132.17 L 90.40,132.16 L 86.21,132.15 L 84.19,132.14 L 80.53,132.14 L 78.77,132.13 L 75.61,132.14 L 74.09,132.14 L 71.40,132.16 L 70.10,132.18 L 67.83,132.22 L 66.75,132.24 L 64.87,132.31 L 63.97,132.34 L 62.45,132.44 L 61.72,132.49 L 60.51,132.61 L 59.94,132.68 L 59.01,132.84 L 58.58,132.93 L 57.89,133.13 L 57.25,133.35 L 56.68,133.82 L 57.13,133.01 L 57.57,132.57 L 58.39,131.44 L 58.36,131.21 L 58.48,131.28 L 59.27,131.37 L 60.15,130.70 L 60.21,130.59 L 60.67,130.40 L 60.95,130.30 L 61.90,130.14 L 62.44,130.07 L 63.94,129.94 L 64.76,129.89 L 66.86,129.80 L 67.99,129.75 L 70.74,129.69 L 72.20,129.67 L 75.66,129.64 L 77.49,129.62 L 81.72,129.62 L 83.93,129.62 L 88.98,129.64 L 90.53,129.65 L 93.37,129.66 L 94.75,129.67 L 97.28,129.67 L 98.51,129.68 L 100.74,129.68 L 101.82,129.68 L 103.76,129.67 L 105.63,129.66 L 108.60,129.62 L 109.96,129.59 L 111.99,129.51 L 112.91,129.47 L 114.15,129.34 L 114.68,129.27 L 115.25,129.10 L 115.46,129.00 L 115.49,128.77 L 115.08,128.34 L 114.97,128.26 M 58.03,131.00 L 58.00,131.00 L 57.92,130.91 L 57.99,130.97 M 59.31,128.60 L 58.70,129.44 L 58.05,129.80 L 58.43,129.43 L 59.44,128.18 M 61.90,126.53 L 61.26,126.51 L 60.95,126.52 L 60.46,126.70 L 59.72,127.73 L 60.00,127.23 L 60.00,126.99 L 60.66,126.52 L 61.63,126.48 M 99.56,127.00 L 101.21,127.01 L 104.30,127.05 L 105.58,127.08 L 107.96,127.16 L 108.92,127.21 L 110.70,127.33 L 111.40,127.40 L 111.79,127.45 L 111.20,127.39 L 110.47,127.32 L 108.66,127.21 L 107.68,127.16 L 105.27,127.09 L 103.99,127.05 L 100.92,127.02 L 99.29,127.00 L 95.46,126.99 L 89.82,127.00 L 95.64,126.99 M 121.79,127.04 L 121.48,127.05 L 120.44,127.37 L 120.37,127.43 L 120.50,127.32 L 121.59,127.01 M 63.20,126.71 L 64.28,126.77 L 65.03,126.80 L 66.66,126.85 L 67.66,126.87 L 69.75,126.92 L 70.95,126.93 L 73.44,126.97 L 74.81,126.98 L 77.63,127.00 L 79.13,127.01 L 82.42,127.02 L 79.17,127.01 L 77.66,127.00 L 74.84,126.98 L 73.47,126.97 L 70.98,126.94 L 69.78,126.92 L 67.68,126.88 L 66.69,126.86 L 65.07,126.80 L 64.32,126.78 L 63.23,126.72 L 62.30,126.62 L 62.26,126.61 M 131.85,66.29 L 131.53,67.20 L 131.43,67.92 L 131.27,69.56 L 131.20,70.75 L 130.99,72.91 L 130.78,74.12 L 130.65,74.59 L 130.37,75.43 L 130.21,75.69 L 129.88,76.10 L 129.85,76.10 L 130.10,75.81 L 130.29,75.52 L 130.61,74.65 L 130.76,74.17 L 130.98,72.93 L 131.20,70.66 L 131.27,69.50 L 131.44,67.88 L 131.53,67.17 L 131.86,66.28 L 132.00,66.00 M 55.37,70.72 L 55.34,70.73 L 55.37,70.72 M 53.35,70.09 L 53.16,69.92 L 51.70,67.50 L 53.24,69.97 M 132.05,65.91 L 132.05,65.90 L 132.49,65.60 M 132.69,142.51 L 132.34,142.34 L 132.17,142.14 L 132.50,142.41 L 132.83,142.55 L 133.55,142.78 L 134.00,142.85 L 133.47,142.77 M 48.04,64.00 L 47.29,64.49 L 48.04,64.00 L 48.49,64.00 L 49.22,64.28 L 48.49,64.00 M 59.95,38.08 L 59.94,40.70 L 59.94,45.74 L 59.93,48.22 L 59.94,52.90 L 59.94,55.19 L 59.96,59.41 L 59.97,61.46 L 60.00,65.11 L 60.01,66.86 L 60.05,69.84 L 60.07,71.23 L 60.12,73.44 L 60.14,74.43 L 60.20,75.75 L 60.29,76.62 L 60.33,76.66 L 61.12,76.74 L 61.63,76.77 L 63.26,76.84 L 64.17,76.87 L 66.52,76.92 L 67.77,76.94 L 70.70,76.98 L 72.23,76.99 L 75.62,77.02 L 77.37,77.03 L 81.11,77.05 L 84.91,77.06 L 93.02,77.05 L 97.08,77.04 L 104.95,76.98 L 106.86,76.97 L 110.47,76.93 L 112.22,76.91 L 115.43,76.86 L 116.97,76.84 L 119.66,76.78 L 120.92,76.75 L 122.96,76.68 L 123.89,76.65 L 125.17,76.57 L 126.08,76.45 L 126.34,76.29 L 126.58,75.76 L 126.46,74.93 L 126.30,74.67 L 126.36,74.27 L 126.93,74.00 L 127.08,74.00 L 127.34,73.68 L 127.45,73.47 L 127.63,72.79 L 127.70,72.41 L 127.78,71.44 L 127.78,69.75 L 127.74,69.03 L 127.69,67.07 L 127.66,66.02 L 127.63,63.46 L 127.62,62.11 L 127.60,59.05 L 127.60,57.47 L 127.60,54.01 L 127.61,50.47 L 127.67,42.63 L 127.71,38.66 L 127.82,30.57 L 127.89,26.57 L 128.04,19.04 L 128.08,17.23 L 128.16,13.86 L 128.20,12.23 L 128.29,9.28 L 128.33,7.87 L 128.43,5.45 L 128.47,4.32 L 128.57,2.53 L 128.61,1.72 L 128.71,0.66 L 128.85,0.00 L 128.88,0.00 L 128.94,0.21 L 128.97,0.35 L 129.03,0.83 L 129.09,1.36 L 129.19,3.16 L 129.23,4.17 L 129.32,6.79 L 129.36,8.20 L 129.42,11.51 L 129.45,13.23 L 129.50,17.09 L 129.52,19.07 L 129.55,23.32 L 129.58,27.65 L 129.58,36.90 L 129.58,41.53 L 129.52,50.53 L 129.50,52.71 L 129.45,56.82 L 129.42,58.83 L 129.35,62.49 L 129.32,64.25 L 129.24,67.31 L 129.19,68.76 L 129.10,71.08 L 129.05,72.13 L 128.93,73.57 L 128.91,73.87 L 128.85,74.28 L 128.75,74.58 L 128.43,74.90 L 128.11,75.48 L 128.00,75.76 L 128.05,76.18 L 128.09,76.28 L 127.22,76.37 L 126.03,76.90 L 125.24,77.59 L 124.98,78.00 L 124.30,78.77 L 124.01,78.77 L 124.00,78.50 L 123.73,78.19 L 123.36,78.47 L 123.12,78.84 L 122.57,79.20 L 121.86,79.41 L 121.31,79.50 L 120.12,79.66 L 120.12,79.66 L 118.00,79.29 L 117.17,79.23 L 115.88,79.42 L 115.61,79.49 L 115.24,79.68 L 115.04,79.98 L 113.45,80.04 L 111.83,80.08 L 108.36,80.16 L 106.28,80.20 L 101.88,80.25 L 99.30,80.28 L 96.65,80.30 L 95.22,80.31 L 92.30,80.33 L 90.73,80.34 L 84.40,80.36 L 80.39,80.36 L 78.52,80.35 L 74.86,80.34 L 73.19,80.32 L 69.98,80.29 L 68.57,80.27 L 65.88,80.23 L 64.76,80.20 L 64.03,80.19 L 63.23,79.88 L 62.76,79.67 L 61.80,79.09 L 60.83,78.47 L 59.01,76.80 L 58.16,75.95 L 56.99,74.23 L 56.76,73.82 L 56.51,73.08 L 56.51,72.16 L 56.65,71.79 L 57.01,70.43 L 57.51,68.16 L 58.01,65.50 L 56.92,68.25 L 56.56,69.18 L 56.26,69.59 L 56.31,69.47 L 56.74,68.17 L 56.91,67.22 L 57.23,65.10 L 57.35,63.69 L 57.47,62.21 L 57.53,61.37 L 57.62,59.63 L 57.67,58.66 L 57.75,56.63 L 57.78,55.51 L 57.84,53.18 L 57.86,51.90 L 57.91,49.26 L 57.93,47.81 L 57.96,44.83 L 57.97,43.21 L 57.99,39.87 L 57.99,38.06 L 58.00,34.35 L 58.00,32.35 L 58.00,26.77 L 58.00,23.39 L 57.99,21.86 L 57.99,18.92 L 57.98,17.60 L 57.97,15.06 L 57.96,13.93 L 57.94,11.76 L 57.93,10.81 L 57.90,8.98 L 57.88,8.19 L 57.84,6.68 L 57.82,6.03 L 57.77,4.81 L 57.73,4.29 L 57.59,2.48 L 57.49,1.88 L 57.28,0.88 L 57.14,0.60 L 56.84,0.17 L 56.65,0.09 L 56.24,0.00 L 60.08,0.00 M 56.00,0.00 L 55.35,0.09 L 55.00,0.31 L 54.86,0.58 L 54.61,1.24 L 54.51,1.81 L 54.33,3.14 L 54.27,4.14 L 54.21,5.19 L 54.18,5.81 L 54.14,7.12 L 54.12,7.88 L 54.08,9.48 L 54.07,10.40 L 54.05,12.31 L 54.04,13.39 L 54.02,15.65 L 54.02,16.92 L 54.01,19.55 L 54.01,21.01 L 54.00,24.05 L 54.00,25.72 L 54.00,29.18 L 54.00,31.08 L 54.00,0.00 Z" fill="rgba(37,73,83,1)"/>
<path d="M 0.00,107.50 L 0.00,0.00 L 25.49,0.00 L 50.97,0.00 L 51.24,30.67 L 51.26,33.60 L 51.32,38.72 L 51.35,41.17 L 51.42,45.37 L 51.46,47.37 L 51.55,50.72 L 51.60,52.30 L 51.71,54.88 L 51.77,56.08 L 51.90,57.96 L 51.98,58.82 L 52.14,60.06 L 52.22,60.61 L 52.42,61.29 L 52.75,61.75 L 52.87,61.79 L 53.09,61.53 L 53.19,61.33 L 53.36,60.53 L 53.44,60.06 L 53.58,58.63 L 53.64,57.83 L 53.74,55.70 L 53.79,54.53 L 53.86,51.61 L 53.90,50.03 L 53.94,46.22 L 53.96,44.20 L 53.99,39.43 L 53.99,38.17 L 54.00,35.46 L 54.00,31.08 L 54.00,29.18 L 54.00,25.72 L 54.00,24.05 L 54.01,21.01 L 54.01,19.55 L 54.02,16.92 L 54.02,15.65 L 54.04,13.39 L 54.05,12.31 L 54.07,10.40 L 54.08,9.48 L 54.12,7.88 L 54.14,7.12 L 54.18,5.81 L 54.21,5.19 L 54.27,4.14 L 54.33,3.14 L 54.51,1.81 L 54.61,1.24 L 54.86,0.58 L 55.00,0.31 L 55.35,0.09 L 56.00,0.00 L 56.24,0.00 L 56.65,0.09 L 56.84,0.17 L 57.14,0.60 L 57.28,0.88 L 57.49,1.88 L 57.59,2.48 L 57.73,4.29 L 57.77,4.81 L 57.82,6.03 L 57.84,6.68 L 57.88,8.19 L 57.90,8.98 L 57.93,10.81 L 57.94,11.76 L 57.96,13.93 L 57.97,15.06 L 57.98,17.60 L 57.99,18.92 L 57.99,21.86 L 58.00,23.39 L 58.00,26.77 L 58.00,32.35 L 58.00,34.35 L 57.99,38.06 L 57.99,39.87 L 57.97,43.21 L 57.96,44.83 L 57.93,47.81 L 57.91,49.26 L 57.86,51.90 L 57.84,53.18 L 57.78,55.51 L 57.75,56.63 L 57.67,58.66 L 57.62,59.63 L 57.53,61.37 L 57.47,62.21 L 57.35,63.69 L 57.23,65.10 L 56.91,67.22 L 56.74,68.17 L 56.31,69.47 L 56.09,70.03 L 55.55,70.65 L 54.59,71.00 L 54.42,71.00 L 53.98,70.72 L 53.75,70.55 L 53.24,69.97 L 51.70,67.50 L 51.24,66.54 L 50.07,65.03 L 49.78,64.71 L 49.22,64.28 L 48.49,64.00 L 48.04,64.00 L 47.27,64.50 L 46.92,64.81 L 46.35,65.81 L 46.10,66.35 L 45.75,67.67 L 45.60,68.36 L 45.46,69.84 L 45.42,70.58 L 45.52,72.04 L 45.59,72.74 L 45.92,74.01 L 46.12,74.60 L 46.70,75.50 L 47.85,76.24 L 48.30,76.33 L 49.81,76.19 L 52.22,75.58 L 52.79,75.37 L 53.70,75.16 L 54.13,75.10 L 54.89,75.21 L 55.27,75.31 L 56.05,75.78 L 57.44,76.94 L 58.12,77.59 L 59.09,78.78 L 59.29,79.05 L 59.51,79.48 L 59.56,79.90 L 59.54,79.94 L 60.13,80.01 L 60.53,80.05 L 61.91,80.12 L 62.69,80.15 L 64.76,80.20 L 65.88,80.23 L 68.57,80.27 L 69.98,80.29 L 73.19,80.32 L 74.86,80.34 L 78.52,80.35 L 80.39,80.36 L 84.40,80.36 L 90.73,80.34 L 92.30,80.33 L 95.22,80.31 L 96.65,80.30 L 99.30,80.28 L 101.88,80.25 L 106.28,80.20 L 108.36,80.16 L 111.83,80.08 L 113.45,80.04 L 116.08,79.93 L 117.30,79.88 L 119.19,79.74 L 120.06,79.67 L 121.31,79.50 L 121.86,79.41 L 122.57,79.20 L 123.12,78.84 L 123.36,78.47 L 123.73,78.19 L 124.00,78.50 L 124.01,78.77 L 124.30,78.77 L 124.98,78.00 L 125.24,77.59 L 126.03,76.90 L 127.22,76.37 L 129.70,76.12 L 129.88,76.10 L 130.21,75.69 L 130.37,75.43 L 130.65,74.59 L 130.78,74.12 L 130.99,72.91 L 131.20,70.75 L 131.27,69.56 L 131.43,67.92 L 131.53,67.20 L 131.85,66.29 L 132.05,65.91 L 132.65,65.49 L 134.00,65.15 L 135.06,65.01 L 136.57,64.49 L 137.24,64.16 L 138.09,63.05 L 138.27,62.73 L 138.54,61.90 L 138.66,61.46 L 138.82,60.38 L 138.88,59.81 L 138.96,58.43 L 139.00,56.00 L 139.00,55.10 L 138.96,53.57 L 138.93,52.84 L 138.82,51.62 L 138.75,51.04 L 138.54,50.10 L 138.42,49.66 L 138.09,48.95 L 137.73,48.29 L 136.57,47.51 L 134.00,46.85 L 133.41,46.76 L 132.61,46.51 L 132.26,46.33 L 131.86,45.62 L 131.70,45.17 L 131.56,43.63 L 131.53,43.18 L 131.51,42.05 L 131.50,40.00 L 131.50,39.23 L 131.51,37.95 L 131.52,37.35 L 131.56,36.37 L 131.61,35.47 L 131.86,34.38 L 132.02,33.94 L 132.61,33.49 L 134.00,33.15 L 135.06,33.01 L 136.57,32.49 L 137.24,32.16 L 138.09,31.05 L 138.27,30.73 L 138.54,29.90 L 138.66,29.46 L 138.82,28.38 L 138.88,27.81 L 138.96,26.43 L 139.00,24.00 L 139.00,23.10 L 138.96,21.57 L 138.93,20.84 L 138.82,19.62 L 138.75,19.04 L 138.54,18.10 L 138.42,17.66 L 138.09,16.95 L 137.73,16.29 L 136.57,15.51 L 134.00,14.85 L 133.41,14.76 L 132.60,14.49 L 132.25,14.30 L 131.82,13.51 L 131.73,13.26 L 131.59,12.59 L 131.52,12.23 L 131.43,11.29 L 131.38,10.79 L 131.31,9.54 L 131.21,7.25 L 130.91,0.00 L 159.46,0.00 L 188.00,0.00 L 188.00,107.50 L 188.00,215.00 L 159.47,215.00 L 130.93,215.00 L 131.22,204.25 L 131.25,202.92 L 131.31,200.74 L 131.35,199.72 L 131.42,198.08 L 131.46,197.33 L 131.57,196.16 L 131.63,195.63 L 131.79,194.85 L 131.88,194.50 L 132.11,194.02 L 132.24,193.80 L 132.56,193.54 L 134.00,193.15 L 135.06,193.01 L 136.57,192.49 L 137.24,192.16 L 138.09,191.05 L 138.27,190.73 L 138.54,189.90 L 138.66,189.46 L 138.82,188.38 L 138.88,187.81 L 138.96,186.43 L 139.00,184.00 L 139.00,183.10 L 138.96,181.57 L 138.93,180.84 L 138.82,179.62 L 138.75,179.04 L 138.54,178.10 L 138.42,177.66 L 138.09,176.95 L 137.73,176.29 L 136.57,175.51 L 134.00,174.85 L 133.41,174.76 L 132.61,174.51 L 132.26,174.33 L 131.86,173.62 L 131.70,173.17 L 131.56,171.63 L 131.53,171.18 L 131.51,170.05 L 131.50,168.00 L 131.50,167.23 L 131.51,165.95 L 131.52,165.35 L 131.56,164.37 L 131.61,163.47 L 131.86,162.38 L 132.02,161.94 L 132.61,161.49 L 134.00,161.15 L 135.06,161.01 L 136.57,160.49 L 137.24,160.16 L 138.09,159.05 L 138.27,158.73 L 138.54,157.90 L 138.66,157.46 L 138.82,156.38 L 138.88,155.81 L 138.96,154.43 L 139.00,152.00 L 139.00,151.10 L 138.96,149.57 L 138.93,148.84 L 138.82,147.62 L 138.75,147.04 L 138.54,146.10 L 138.42,145.66 L 138.09,144.95 L 137.73,144.29 L 136.57,143.51 L 134.00,142.85 L 133.55,142.78 L 132.83,142.55 L 132.50,142.41 L 132.01,142.01 L 131.79,141.78 L 131.49,141.17 L 131.22,140.00 L 131.07,138.68 L 130.74,136.69 L 130.56,135.78 L 130.10,134.50 L 129.85,133.93 L 129.21,133.18 L 127.94,132.48 L 127.37,132.30 L 126.16,131.31 L 124.78,129.41 L 124.47,128.73 L 123.61,127.80 L 123.15,127.41 L 122.11,127.09 L 121.59,127.01 L 120.50,127.32 L 118.98,128.52 L 118.70,128.86 L 118.23,129.29 L 118.01,129.46 L 117.53,129.54 L 117.28,129.53 L 116.64,129.27 L 115.32,128.47 L 115.07,128.31 L 114.43,128.03 L 114.09,127.89 L 113.18,127.67 L 112.69,127.57 L 111.40,127.40 L 110.70,127.33 L 108.92,127.21 L 107.96,127.16 L 105.58,127.08 L 104.30,127.05 L 101.21,127.01 L 99.56,127.00 L 95.64,126.99 L 88.71,127.01 L 85.38,127.02 L 79.13,127.01 L 77.63,127.00 L 74.81,126.98 L 73.44,126.97 L 70.95,126.93 L 69.75,126.92 L 67.66,126.87 L 66.66,126.85 L 65.03,126.80 L 64.28,126.77 L 63.20,126.71 L 62.25,126.61 L 61.63,126.48 L 60.66,126.52 L 60.00,126.99 L 60.00,127.23 L 59.54,128.06 L 58.43,129.43 L 57.96,129.89 L 57.61,130.56 L 58.00,131.00 L 58.34,131.00 L 58.39,131.44 L 57.57,132.57 L 57.13,133.01 L 56.52,134.11 L 56.27,134.68 L 56.06,135.85 L 56.00,136.42 L 56.20,137.43 L 57.00,138.50 L 57.08,138.55 L 57.23,139.28 L 57.30,139.74 L 57.43,141.29 L 57.49,142.16 L 57.60,144.49 L 57.65,145.75 L 57.74,148.85 L 57.78,150.49 L 57.85,154.32 L 57.88,156.33 L 57.93,160.87 L 57.96,163.23 L 57.98,168.47 L 58.00,177.06 L 58.00,179.39 L 58.00,183.63 L 58.00,185.68 L 57.99,189.39 L 57.99,191.18 L 57.98,194.40 L 57.98,195.95 L 57.96,198.71 L 57.96,200.04 L 57.93,202.38 L 57.92,203.49 L 57.89,205.44 L 57.87,206.37 L 57.82,207.97 L 57.80,208.73 L 57.74,210.01 L 57.71,210.61 L 57.63,211.61 L 57.59,212.07 L 57.50,212.82 L 57.40,213.52 L 57.14,214.31 L 57.00,214.64 L 56.65,214.90 L 56.00,215.00 L 55.75,215.00 L 55.35,214.90 L 55.16,214.82 L 54.86,214.36 L 54.72,214.06 L 54.50,212.98 L 54.41,212.33 L 54.26,210.37 L 54.23,209.81 L 54.18,208.49 L 54.16,207.78 L 54.12,206.15 L 54.10,205.29 L 54.07,203.32 L 54.06,202.28 L 54.04,199.93 L 54.03,198.71 L 54.02,195.95 L 54.01,194.52 L 54.01,191.33 L 54.00,189.67 L 54.00,186.01 L 54.00,179.95 L 54.00,177.66 L 54.00,173.48 L 53.99,171.45 L 53.98,167.77 L 53.98,165.99 L 53.95,162.77 L 53.94,161.22 L 53.90,158.44 L 53.88,157.09 L 53.83,154.70 L 53.80,153.55 L 53.72,151.51 L 53.67,150.54 L 53.57,148.82 L 53.51,148.00 L 53.37,146.58 L 53.23,145.21 L 52.83,143.19 L 52.61,142.27 L 52.03,140.92 L 51.72,140.30 L 50.95,139.34 L 49.52,138.02 L 49.07,137.65 L 48.29,137.33 L 47.91,137.25 L 47.25,137.54 L 46.93,137.76 L 46.35,138.67 L 45.54,140.76 L 45.41,141.21 L 45.33,141.95 L 45.34,142.30 L 45.60,142.91 L 45.78,143.21 L 46.43,143.79 L 47.92,144.76 L 50.99,146.50 L 50.99,180.75 L 51.00,215.00 L 25.50,215.00 L 0.00,215.00 L 0.00,107.50 M 52.00,131.00 L 52.66,130.34 L 53.46,129.27 L 53.78,128.78 L 53.88,128.00 L 53.84,127.64 L 53.23,127.08 L 51.50,126.41 L 50.62,126.19 L 49.15,126.10 L 48.47,126.12 L 47.42,126.49 L 46.96,126.74 L 46.36,127.57 L 46.00,129.30 L 46.00,129.83 L 46.12,130.72 L 46.20,131.14 L 46.48,131.81 L 46.78,132.42 L 47.77,132.96 L 48.31,133.12 L 49.68,132.71 L 50.39,132.39 Z" fill="rgba(34,76,88,1)"/>
</g>
</svg>